<?xml version="1.0" encoding="UTF-8"?>
<svg xmlns="http://www.w3.org/2000/svg"
     width="512" height="512"
     viewBox="0 0 512 512">
  <!-- glyph: uniF0DA  unicode:  -->
  <path d="M418 423Q426 425 426 435Q424 443 414 443Q413 443 399.5 440.0Q386 437 368 432Q343 425 331.0 419.5Q319 414 314 409Q306 414 291.0 420.0Q276 426 256 427H251Q232 427 218.5 421.0Q205 415 197 410Q185 421 148 431Q137 434 123.5 438.5Q110 443 96 443Q87 443 86 433Q86 425 94 423Q101 422 108 420Q114 418 122.0 416.5Q130 415 138 413Q160 407 170.0 402.5Q180 398 183 396Q175 383 162.5 344.5Q150 306 150 240Q150 202 152.5 171.0Q155 140 160 118Q166 96 173 85Q178 76 184.0 73.0Q190 70 195 70Q200 70 205.5 73.0Q211 76 217 85Q224 97 229 118Q240 164 240 240Q240 303 228.0 341.0Q216 379 208 393Q215 398 226.5 402.5Q238 407 255 407Q272 406 284.0 401.5Q296 397 303 392Q295 378 283.5 340.5Q272 303 272 240Q272 202 274.5 171.0Q277 140 282 118Q288 96 295 85Q300 76 306.0 73.0Q312 70 317 70Q322 70 327.5 73.0Q333 76 339 85Q346 97 351 118Q362 164 362 240Q362 306 349.0 344.5Q336 383 329 396Q332 398 341.5 402.5Q351 407 374 413Q382 415 390.0 416.5Q398 418 404 420Q411 422 418 423ZM180 123Q175 143 172.5 173.0Q170 203 170 240Q170 292 178.5 325.0Q187 358 195 375Q203 358 211.5 325.0Q220 292 220 240Q220 203 217.5 173.0Q215 143 210 123Q205 103 200.5 96.5Q196 90 195 90Q193 90 189.0 96.5Q185 103 180 123ZM302 123Q297 143 294.5 173.0Q292 203 292 240Q292 292 300.5 325.0Q309 358 317 375Q325 358 333.5 325.0Q342 292 342 240Q342 203 339.5 173.0Q337 143 332 123Q327 103 322.5 96.5Q318 90 317 90Q315 90 311.0 96.5Q307 103 302 123Z" fill="black"/>
</svg>
