<?xml version="1.0" encoding="UTF-8"?>
<svg xmlns="http://www.w3.org/2000/svg"
     width="512" height="512"
     viewBox="0 0 512 512">
  <!-- glyph: uniF0F3  unicode:  -->
  <path d="M256 161Q262 161 266.5 165.5Q271 170 271 176V336Q271 342 266.5 346.5Q262 351 256 351Q250 351 245.5 346.5Q241 342 241 336V176Q241 170 245.5 165.5Q250 161 256 161ZM376 426Q431 454 431 496V512H401V496Q401 472 362 453Q318 431 256 431Q195 431 149 453Q111 472 111 496V512H81V496Q81 454 136 426Q146 421 156.5 417.0Q167 413 179 410Q154 397 132 373Q108 347 94.5 316.0Q81 285 81 256V255Q81 183 132 132Q183 81 256 81Q292 81 324.0 95.0Q356 109 379.5 132.5Q403 156 417.0 188.0Q431 220 431 256Q431 285 417.5 316.0Q404 347 380 373Q358 397 333 410Q344 413 355.0 417.0Q366 421 376 426ZM256 401Q314 401 358 352Q378 331 389.5 305.0Q401 279 401 256Q401 226 389.5 199.5Q378 173 358.5 153.5Q339 134 312.5 122.5Q286 111 256 111Q226 111 199.5 122.5Q173 134 153.5 153.5Q134 173 122.5 199.0Q111 225 111 255V256Q111 279 122.5 305.0Q134 331 154 352Q198 401 256 401Z" fill="black"/>
</svg>
